<svg xmlns="http://www.w3.org/2000/svg" width="472" height="578" viewBox="0 0 472 578">
<g>
<path d="M 140.63 515.82 C129.14,523.71 119.15,530.39 118.42,530.67 C117.61,530.98 120.10,522.17 124.81,508.06 L 132.53 484.94 L 151.47 474.50 C175.10,461.49 175.58,461.50 180.12,475.00 C181.32,478.58 182.91,482.43 183.65,483.56 C184.91,485.51 184.31,486.08 173.24,493.55 C166.78,497.91 152.11,507.93 140.63,515.82 ZM 253.90 432.01 C250.55,438.00 246.73,443.60 245.40,444.47 C243.07,446.00 243.00,445.97 242.89,443.27 C242.70,438.41 243.17,435.57 244.67,432.68 C245.47,431.13 246.27,428.21 246.46,426.18 C246.65,424.16 246.84,422.17 246.90,421.78 C246.95,421.38 249.35,419.47 252.22,417.54 L 257.44 414.02 L 258.69 416.26 C259.37,417.49 259.95,419.09 259.96,419.81 C259.98,420.54 257.26,426.02 253.90,432.01 Z" fill="rgb(32,129,228)"/>
<path d="M 132.97 484.69 C134.59,480.74 135.33,480.22 136.35,480.37 C137.52,480.55 140.06,480.05 141.99,479.26 C144.97,478.03 161.17,469.14 171.50,463.07 C173.15,462.10 179.23,458.68 185.00,455.47 C206.13,443.74 247.63,419.60 252.23,416.36 L 256.96 413.03 L 257.96 414.95 L 257.44 414.02 L 252.22 417.54 C249.35,419.47 246.95,421.38 246.90,421.78 C246.84,422.17 246.65,424.16 246.46,426.18 C246.27,428.21 245.47,431.13 244.67,432.68 C243.17,435.57 242.70,438.41 242.89,443.27 C242.97,445.24 243.03,445.79 243.96,445.35 L 217.98 463.06 C204.96,471.94 189.67,482.35 179.81,489.04 C184.50,485.70 184.59,485.01 183.65,483.56 C182.91,482.43 181.32,478.58 180.12,475.00 C175.58,461.50 175.10,461.49 151.47,474.50 ZM 245.96 443.98 C247.61,442.30 250.93,437.32 253.88,432.05 L 247.96 442.62 ZM 259.95 419.64 C259.98,419.79 260.00,419.92 260.00,420.01 C260.00,420.63 257.29,425.96 253.98,431.87 C257.30,425.94 259.98,420.53 259.96,419.81 C259.96,419.76 259.96,419.70 259.95,419.64 ZM 118.40 530.67 C118.38,530.68 118.36,530.69 118.35,530.70 C118.17,530.77 118.21,530.21 118.44,529.13 C118.23,530.17 118.21,530.70 118.40,530.67 Z" fill="rgb(42,88,217)"/>
<path d="M 259.86 398.54 C248.19,401.10 247.11,400.83 240.40,393.75 C231.93,384.81 221.00,372.38 221.00,371.68 C221.00,371.35 234.32,366.73 250.60,361.41 L 280.20 351.73 L 290.35 353.99 C341.55,365.39 356.00,368.88 356.00,369.86 C355.99,371.14 341.64,376.41 341.26,375.28 C340.82,373.97 335.69,374.45 328.50,376.48 C325.75,377.26 319.45,378.87 314.50,380.07 C297.75,384.14 292.22,386.12 285.69,390.41 C281.13,393.41 277.28,395.05 272.84,395.89 C269.35,396.55 263.51,397.74 259.86,398.54 Z" fill="rgb(49,23,111)"/>
<path d="M 132.97 484.69 L 132.82 484.77 C135.42,477.11 137.76,470.17 139.17,465.98 L 144.04 451.46 L 193.27 426.58 C220.35,412.89 243.11,401.22 243.87,400.63 C244.92,399.80 246.33,400.80 250.08,405.03 C252.75,408.04 254.95,410.84 254.97,411.25 C254.99,411.66 255.60,412.00 256.33,412.00 C257.07,412.00 257.70,412.56 257.74,413.25 C257.77,413.69 258.01,414.63 258.37,415.69 L 257.96 414.95 L 256.96 413.03 L 252.23 416.36 C247.63,419.60 206.13,443.74 185.00,455.47 C179.23,458.68 173.15,462.10 171.50,463.07 C161.17,469.14 144.97,478.03 141.99,479.26 C140.06,480.05 137.52,480.55 136.35,480.37 C135.33,480.22 134.59,480.74 132.97,484.69 ZM 258.72 422.98 C257.91,424.81 256.47,427.44 254.13,431.61 C255.99,428.28 257.65,425.16 258.72,422.98 Z" fill="rgb(57,37,186)"/>
<path d="M 354.67 370.93 C355.49,370.48 356.00,370.10 356.00,369.86 C356.00,368.88 341.55,365.39 290.35,353.99 L 280.76 351.85 C289.28,349.12 298.83,346.07 309.50,342.66 C352.14,329.04 370.14,323.63 370.57,324.31 C370.64,324.41 367.91,334.59 364.51,346.92 L 358.34 369.34 ZM 259.86 398.54 C263.51,397.74 269.35,396.55 272.84,395.89 C277.28,395.05 281.13,393.41 285.69,390.41 C292.22,386.12 297.75,384.14 314.50,380.07 C319.45,378.87 325.75,377.26 328.50,376.48 C335.69,374.45 340.82,373.97 341.26,375.28 C341.45,375.86 345.26,374.78 348.95,373.41 L 327.42 382.73 C310.41,390.10 287.73,399.93 277.00,404.58 C266.98,408.92 258.75,412.82 257.80,413.64 C257.77,413.48 257.75,413.35 257.74,413.25 C257.70,412.56 257.07,412.00 256.33,412.00 C255.60,412.00 254.99,411.66 254.97,411.25 C254.95,410.84 252.75,408.04 250.08,405.03 C246.33,400.80 244.92,399.80 243.87,400.63 C243.40,401.00 234.35,405.68 221.03,412.48 C234.31,405.68 243.31,400.99 243.73,400.60 C244.67,399.73 242.20,396.33 232.98,385.80 C232.29,385.02 231.62,384.25 230.96,383.50 C234.01,386.90 237.36,390.55 240.40,393.75 C247.11,400.83 248.19,401.10 259.86,398.54 ZM 221.02 371.66 C221.01,371.63 221.00,371.62 221.00,371.61 C221.00,371.45 223.36,370.57 228.65,368.78 C224.11,370.37 221.26,371.43 221.02,371.66 ZM 258.43 415.79 L 258.37 415.69 C258.32,415.55 258.28,415.42 258.24,415.29 C258.30,415.45 258.36,415.62 258.43,415.79 Z" fill="rgb(89,24,133)"/>
<path d="M 221.00 371.68 L 221.00 371.68 C221.00,372.13 225.50,377.41 230.96,383.50 C231.62,384.25 232.29,385.02 232.98,385.80 C242.20,396.33 244.67,399.73 243.73,400.60 C243.31,400.99 234.31,405.68 221.03,412.48 C213.01,416.58 203.44,421.43 193.27,426.58 L 184.97 430.77 C216.82,414.61 224.00,410.41 224.00,408.09 C224.00,407.71 222.00,406.14 219.56,404.59 C214.85,401.61 209.06,395.84 207.08,392.16 C206.78,391.59 206.54,391.16 206.47,390.69 C206.19,389.08 207.84,387.15 215.36,378.31 L 215.50 378.14 ZM 229.25 368.57 C229.05,368.64 228.85,368.71 228.65,368.78 C224.16,370.30 221.78,371.16 221.16,371.49 L 221.50 371.09 ZM 309.50 342.66 C301.30,345.28 293.76,347.69 286.85,349.90 C304.35,344.27 319.24,339.52 331.39,335.71 C324.97,337.73 317.69,340.05 309.50,342.66 Z" fill="rgb(122,28,193)"/>
<path d="M 221.00 371.68 L 220.68 372.05 L 213.84 364.42 C187.51,335.06 184.36,331.04 188.75,332.41 C189.71,332.71 193.88,333.62 198.00,334.44 C205.63,335.94 239.71,343.24 266.06,349.01 L 279.50 351.96 L 250.60 361.41 C242.23,364.14 234.65,366.70 229.25,368.57 L 221.50 371.09 L 221.16 371.49 C221.05,371.54 221.00,371.59 221.00,371.61 C221.00,371.62 221.01,371.63 221.02,371.66 C221.01,371.66 221.00,371.67 221.00,371.68 ZM 421.00 275.00 C421.00,276.17 388.37,276.42 387.67,275.25 C387.42,274.84 389.45,268.14 392.18,260.36 C396.51,248.00 397.38,246.29 399.07,246.73 C400.13,247.01 401.00,248.05 401.00,249.04 C401.00,250.71 403.28,252.99 407.44,255.50 C408.62,256.20 409.25,258.40 409.61,262.92 C409.88,266.45 410.52,270.10 411.02,271.04 C411.52,271.97 411.65,273.02 411.30,273.37 C410.95,273.72 412.99,274.00 415.83,274.00 C418.67,274.00 421.00,274.45 421.00,275.00 ZM 208.17 386.97 C206.70,388.92 206.32,389.85 206.47,390.69 C206.54,391.15 206.77,391.58 207.07,392.13 C206.72,391.47 206.44,391.01 206.36,390.52 C206.25,389.73 206.66,388.86 208.17,386.97 ZM 345.55 331.28 C342.13,332.34 338.34,333.52 334.16,334.83 C338.21,333.56 342.03,332.36 345.55,331.28 Z" fill="rgb(120,23,79)"/>
<path d="M 208.17 386.97 C206.66,388.86 206.25,389.73 206.36,390.52 C206.44,391.01 206.72,391.47 207.07,392.13 L 207.08 392.16 C209.06,395.84 214.85,401.61 219.56,404.59 C222.00,406.14 224.00,407.71 224.00,408.09 C224.00,410.41 216.82,414.61 184.97,430.77 L 184.97 430.77 L 165.09 440.82 C169.35,438.49 172.35,436.61 172.59,436.04 C172.94,435.19 173.43,432.70 173.68,430.50 C174.75,421.02 176.01,419.33 202.45,392.00 C206.45,387.87 210.53,383.61 213.54,380.45 C210.98,383.46 209.27,385.50 208.17,386.97 ZM 144.05 451.42 L 147.45 449.73 L 144.04 451.46 Z" fill="rgb(154,30,153)"/>
<path d="M 189.10 325.25 C186.71,328.41 184.69,331.00 184.61,331.00 C183.41,331.00 129.85,285.55 130.73,285.28 C132.00,284.89 202.69,273.19 213.95,271.50 C219.70,270.64 225.43,269.68 226.70,269.36 C228.01,269.03 229.00,269.24 229.00,269.84 C229.00,270.73 203.01,306.82 189.10,325.25 ZM 330.46 271.94 C331.87,274.22 330.12,272.66 321.12,263.62 L 311.77 254.23 L 315.13 253.17 C316.99,252.59 320.52,251.61 323.00,251.00 C325.48,250.38 328.29,249.65 329.25,249.37 C330.31,249.07 331.00,249.40 331.00,250.23 C331.00,250.98 331.52,252.12 332.17,252.77 C332.81,253.41 333.50,255.56 333.70,257.54 C334.00,260.48 333.59,261.53 331.49,263.18 C329.52,264.74 329.02,265.88 329.36,268.05 C329.61,269.60 330.10,271.36 330.46,271.94 ZM 303.73 242.75 C305.08,245.09 305.81,247.00 305.35,246.99 C304.88,246.99 296.85,239.53 287.50,230.41 C278.15,221.29 273.39,216.34 276.92,219.41 C280.45,222.48 283.56,224.78 283.83,224.51 C284.10,224.24 284.93,224.53 285.68,225.15 C286.43,225.77 287.35,225.99 287.71,225.62 C288.58,224.76 288.85,221.00 288.05,221.00 C287.70,221.00 287.35,219.99 287.26,218.75 C287.16,217.51 286.83,215.45 286.50,214.17 C285.33,209.46 287.97,213.27 294.55,225.76 C298.24,232.77 302.37,240.41 303.73,242.75 ZM 408.37 256.57 C408.10,256.06 407.80,255.71 407.44,255.50 C403.28,252.99 401.00,250.71 401.00,249.04 C401.00,248.05 400.13,247.01 399.07,246.73 C397.43,246.30 396.56,247.90 392.54,259.33 C393.18,257.40 393.87,255.37 394.59,253.28 C398.66,241.42 402.00,231.55 402.00,231.36 C402.00,231.16 402.62,231.00 403.38,231.00 C404.14,231.00 406.49,233.14 408.60,235.75 C410.72,238.36 411.65,239.87 410.68,239.09 C408.19,237.10 407.19,238.61 406.88,244.89 C406.63,249.79 406.87,250.49 409.55,252.69 C411.17,254.02 414.64,256.22 417.25,257.57 C419.86,258.93 422.00,260.26 422.00,260.53 C422.00,260.80 418.81,259.42 414.90,257.45 C406.96,253.45 401.17,251.16 404.34,253.27 C405.35,253.95 406.83,254.96 407.63,255.52 C407.89,255.70 408.14,256.06 408.37,256.57 ZM 251.38 236.80 C252.12,238.01 248.63,241.81 247.24,241.29 C246.55,241.04 246.22,240.46 246.50,240.00 C246.78,239.55 246.09,237.03 244.96,234.40 C243.00,229.84 242.99,229.58 244.71,228.56 C246.47,227.52 258.23,224.92 258.78,225.46 C258.94,225.61 257.23,228.06 254.99,230.89 C252.75,233.73 251.12,236.39 251.38,236.80 ZM 210.28 336.99 C204.55,335.77 200.19,334.87 198.00,334.44 C193.88,333.62 189.71,332.71 188.75,332.41 C188.47,332.32 188.22,332.26 188.01,332.22 C190.04,331.37 194.49,331.28 195.42,332.48 C196.18,333.47 199.10,334.46 210.28,336.99 ZM 387.75 275.42 C387.74,275.41 387.73,275.37 387.73,275.31 C388.62,275.86 397.06,276.07 405.22,276.00 C396.89,276.11 388.29,275.96 387.75,275.42 ZM 187.14 332.81 C187.37,333.82 189.05,336.14 192.87,340.67 C188.96,336.09 187.00,333.60 187.00,333.20 C187.00,333.06 187.05,332.93 187.14,332.81 Z" fill="rgb(187,31,49)"/>
<path d="M 345.55 331.28 L 345.54 331.28 C342.02,332.37 338.21,333.56 334.16,334.83 C333.25,335.12 332.33,335.41 331.39,335.71 L 331.38 335.71 C319.24,339.52 304.35,344.27 286.85,349.90 C284.77,350.57 282.74,351.22 280.76,351.85 L 280.20 351.73 L 279.50 351.96 L 266.06 349.01 C247.27,344.89 224.54,340.00 210.28,336.99 C199.10,334.46 196.18,333.47 195.42,332.48 C194.91,331.82 193.36,331.55 191.72,331.58 C191.89,331.55 192.07,331.53 192.25,331.51 C195.14,331.13 201.77,329.76 207.00,328.46 C212.23,327.16 228.88,323.37 244.00,320.02 C284.60,311.05 294.19,308.14 291.98,305.48 C291.40,304.78 291.02,303.83 291.12,303.36 C291.39,302.11 288.21,295.25 287.02,294.51 C286.46,294.16 286.00,293.40 286.00,292.80 C286.00,290.79 295.81,292.82 316.34,299.06 C327.43,302.44 340.25,306.51 344.83,308.10 C349.41,309.70 354.40,311.00 355.92,311.00 C358.01,311.00 360.18,312.56 364.80,317.37 L 370.92 323.74 L 368.97 330.64 C368.84,331.08 368.69,331.61 368.53,332.21 C369.81,327.43 370.61,324.36 370.57,324.31 C370.29,323.87 362.59,326.00 345.55,331.28 ZM 421.00 275.00 C421.00,274.45 418.67,274.00 415.83,274.00 C412.99,274.00 410.95,273.72 411.30,273.37 C411.65,273.02 411.52,271.97 411.02,271.04 C410.52,270.10 409.88,266.45 409.61,262.92 C409.36,259.76 408.97,257.74 408.37,256.57 C408.14,256.06 407.89,255.70 407.63,255.52 C406.83,254.96 405.35,253.95 404.34,253.27 C401.17,251.16 406.96,253.45 414.90,257.45 C418.81,259.42 422.00,260.80 422.00,260.53 C422.00,260.26 419.86,258.93 417.25,257.57 C414.64,256.22 411.17,254.02 409.55,252.69 C408.05,251.46 407.32,250.70 407.00,249.42 C407.35,250.76 408.21,251.55 410.08,253.05 C414.72,256.77 442.15,271.00 444.68,271.00 C446.89,271.00 450.40,274.27 449.34,275.33 C448.83,275.84 425.41,276.07 407.61,275.97 C414.72,275.85 421.00,275.51 421.00,275.00 ZM 291.72 220.48 C287.23,212.27 285.51,210.20 286.50,214.17 C286.83,215.45 287.16,217.51 287.26,218.75 C287.35,219.99 287.70,221.00 288.05,221.00 C288.85,221.00 288.58,224.76 287.71,225.62 C287.35,225.99 286.43,225.77 285.68,225.15 C284.93,224.53 284.10,224.24 283.83,224.51 C283.56,224.78 280.45,222.48 276.92,219.41 C273.39,216.34 278.15,221.29 287.50,230.41 C296.78,239.46 304.76,246.88 305.33,246.99 C305.33,246.99 305.33,246.99 305.32,246.99 C304.20,246.98 270.00,214.05 270.00,212.98 C270.00,212.52 270.99,211.82 272.21,211.43 C273.42,211.05 276.14,208.94 278.25,206.74 C280.36,204.55 282.22,202.92 282.39,203.13 C282.56,203.33 286.64,210.93 291.47,220.00 ZM 216.20 377.32 L 215.36 378.31 C214.71,379.08 214.10,379.79 213.54,380.45 C210.53,383.61 206.45,387.87 202.45,392.00 C176.01,419.33 174.75,421.02 173.68,430.50 C173.43,432.70 172.94,435.19 172.59,436.04 C172.35,436.61 169.35,438.49 165.09,440.82 L 149.18 448.86 C151.06,447.69 152.58,445.97 153.82,443.63 C155.11,441.20 170.03,425.07 188.59,406.06 C204.04,390.23 212.15,381.91 216.20,377.32 ZM 208.45 358.40 C191.93,339.96 187.03,334.21 187.00,333.20 C187.02,333.63 188.98,336.11 192.87,340.67 C196.24,344.66 201.27,350.37 208.45,358.40 ZM 211.69 362.02 C212.38,362.80 213.10,363.60 213.84,364.42 L 220.68 372.05 L 217.86 375.37 C220.47,372.14 220.08,371.56 219.30,370.63 C218.50,369.69 215.33,366.11 211.69,362.02 ZM 303.73 242.75 C302.51,240.65 299.06,234.27 295.69,227.92 C299.05,234.19 302.04,239.70 303.19,241.75 C303.43,242.18 303.66,242.60 303.87,243.01 C303.83,242.92 303.78,242.84 303.73,242.75 ZM 358.36 369.33 L 358.34 369.34 L 360.20 362.58 ZM 139.82 464.03 L 139.17 465.98 C137.76,470.17 135.42,477.11 132.82,484.77 C135.42,477.08 137.78,470.11 139.20,465.88 C139.42,465.23 139.62,464.62 139.82,464.03 Z" fill="rgb(190,27,86)"/>
<path d="M 144.05 451.42 L 144.04 451.46 L 139.82 464.03 L 139.82 464.03 C139.62,464.62 139.41,465.23 139.20,465.88 C137.78,470.11 135.42,477.08 132.82,484.77 L 132.75 484.81 C138.70,467.22 146.67,443.57 153.65,422.82 C169.77,374.90 172.57,367.38 173.69,368.82 C174.91,370.38 174.96,370.37 174.40,368.75 C174.06,367.79 174.26,367.00 174.83,367.00 C175.43,367.00 175.80,365.11 175.69,362.60 C175.58,360.17 175.84,358.40 176.25,358.65 C176.66,358.91 177.00,358.61 177.00,358.00 C177.00,357.39 177.52,357.20 178.15,357.60 C178.84,358.02 179.04,357.87 178.65,357.24 C178.28,356.65 178.43,355.01 178.97,353.58 C179.51,352.16 179.55,351.00 179.07,351.00 C178.58,351.00 178.42,350.12 178.70,349.04 C179.16,347.28 179.38,347.23 180.73,348.59 C181.56,349.42 182.98,349.96 183.87,349.78 C185.20,349.52 185.49,348.17 185.43,342.48 C185.34,334.58 184.83,331.84 182.30,329.35 C183.65,330.40 184.48,331.00 184.61,331.00 C184.69,331.00 186.71,328.41 189.10,325.25 C203.01,306.82 229.00,270.73 229.00,269.84 C229.00,269.76 228.98,269.68 228.95,269.62 C229.80,269.66 230.40,269.79 230.77,270.01 C232.65,271.08 274.51,284.75 287.50,288.52 C297.66,291.48 305.68,292.15 305.09,290.00 C304.42,287.54 304.43,277.89 305.11,272.00 C305.46,268.98 305.38,266.11 304.95,265.63 C303.90,264.47 304.90,262.00 306.41,262.00 C307.37,262.00 342.40,295.43 360.04,312.86 C358.34,311.51 357.12,311.00 355.92,311.00 C354.40,311.00 349.41,309.70 344.83,308.10 C340.25,306.51 327.43,302.44 316.34,299.06 C295.81,292.82 286.00,290.79 286.00,292.80 C286.00,293.40 286.46,294.16 287.02,294.51 C288.21,295.25 291.39,302.11 291.12,303.36 C291.02,303.83 291.40,304.78 291.98,305.48 C294.19,308.14 284.60,311.05 244.00,320.02 C228.88,323.37 212.23,327.16 207.00,328.46 C201.77,329.76 195.14,331.13 192.25,331.51 C192.07,331.53 191.89,331.55 191.72,331.58 C190.35,331.60 188.93,331.83 188.01,332.22 C187.34,332.10 187.01,332.25 187.14,332.81 C187.05,332.93 187.00,333.06 187.00,333.20 L 187.00 333.20 C187.03,334.21 191.93,339.96 208.45,358.40 C209.48,359.56 210.56,360.76 211.69,362.02 L 211.69 362.03 C215.34,366.11 218.50,369.69 219.30,370.63 C220.08,371.56 220.47,372.14 217.86,375.37 L 216.20 377.32 L 216.20 377.32 C212.15,381.92 204.04,390.23 188.59,406.06 C170.03,425.07 155.11,441.20 153.82,443.63 C152.58,445.97 151.06,447.69 149.18,448.86 L 147.45 449.73 ZM 282.68 203.63 C282.51,203.33 282.41,203.15 282.39,203.13 C282.22,202.92 280.36,204.55 278.25,206.74 C276.14,208.94 273.42,211.05 272.21,211.43 C270.99,211.82 270.00,212.52 270.00,212.98 C270.00,213.54 279.23,222.69 288.25,231.36 C287.83,230.96 287.41,230.55 286.99,230.14 L 269.47 213.29 L 263.49 212.55 C260.19,212.14 248.28,210.05 237.00,207.90 C225.73,205.76 216.14,204.00 215.69,204.00 C215.25,204.00 215.11,203.64 215.38,203.19 C215.66,202.75 214.78,201.56 213.44,200.55 C209.97,197.95 210.39,196.55 215.25,194.57 C224.86,190.65 224.37,191.10 228.01,182.71 C229.24,179.88 230.99,177.58 232.29,177.10 C234.81,176.17 244.66,177.10 256.86,179.41 C261.46,180.29 266.42,181.00 267.88,181.00 C270.29,181.00 271.51,182.82 282.68,203.63 ZM 330.46 271.94 C330.10,271.36 329.61,269.60 329.36,268.05 C329.02,265.88 329.52,264.74 331.49,263.18 C333.59,261.53 334.00,260.48 333.70,257.54 C333.50,255.56 332.81,253.41 332.17,252.77 C331.52,252.12 331.00,250.98 331.00,250.23 C331.00,250.06 330.97,249.91 330.91,249.78 C331.00,249.80 331.09,249.82 331.17,249.85 C332.14,250.12 333.02,250.68 334.39,251.48 C336.65,252.80 348.40,258.96 360.50,265.19 C372.60,271.41 383.29,276.97 384.25,277.54 C385.85,278.49 385.51,279.98 379.94,296.01 C376.61,305.60 373.73,313.61 373.54,313.80 C373.31,314.03 347.06,288.92 329.23,271.60 C331.05,273.28 331.24,273.19 330.46,271.94 ZM 427.40 252.87 C435.47,260.51 442.48,267.41 446.32,271.44 C445.75,271.17 445.19,271.00 444.68,271.00 C442.15,271.00 414.72,256.77 410.08,253.05 C408.21,251.55 407.35,250.76 407.00,249.42 C406.75,248.40 406.77,247.06 406.88,244.89 C407.19,238.61 408.19,237.10 410.68,239.09 C411.65,239.87 410.72,238.36 408.60,235.75 C408.34,235.42 408.06,235.10 407.79,234.78 C411.73,238.16 417.97,243.94 427.40,252.87 ZM 246.00 241.89 C246.00,242.50 245.50,243.00 244.89,243.00 C244.13,243.00 243.99,241.55 244.44,238.54 C244.77,236.38 244.72,234.37 244.34,232.95 C244.52,233.38 244.73,233.86 244.96,234.40 C246.09,237.03 246.78,239.55 246.50,240.00 C246.23,240.44 246.52,240.98 247.15,241.26 C246.49,241.12 246.00,241.37 246.00,241.89 ZM 243.80 234.87 C244.00,236.17 243.76,237.64 243.25,238.15 C242.70,238.70 242.55,237.77 242.88,235.78 C243.34,233.00 243.48,232.86 243.80,234.87 ZM 130.73 285.28 C130.74,285.27 130.75,285.27 130.77,285.27 C130.75,285.27 130.74,285.28 130.73,285.28 C130.31,285.41 142.28,295.82 155.04,306.67 C150.52,302.87 145.79,298.89 141.20,295.01 C135.02,289.78 130.31,285.41 130.73,285.28 ZM 324.35 266.86 C318.24,260.89 313.86,256.55 313.17,255.71 C313.07,255.59 312.99,255.48 312.91,255.38 L 321.12 263.62 C322.32,264.83 323.40,265.90 324.35,266.86 ZM 223.54 269.97 C221.05,270.40 217.50,270.97 213.95,271.50 C212.81,271.67 211.05,271.95 208.82,272.30 C212.89,271.64 216.61,271.03 219.77,270.52 C221.16,270.29 222.42,270.11 223.54,269.97 ZM 247.43 241.34 C248.30,241.42 249.73,240.27 250.64,239.06 C249.82,240.46 248.38,241.70 247.48,241.36 C247.47,241.35 247.45,241.34 247.43,241.34 ZM 301.00 237.75 C301.19,238.10 301.38,238.45 301.56,238.79 C300.08,236.08 297.97,232.17 295.69,227.92 C295.31,227.19 294.93,226.47 294.55,225.76 C294.41,225.49 294.27,225.22 294.13,224.95 C297.17,230.62 299.69,235.31 301.00,237.75 ZM 244.71 228.56 L 244.71 228.56 C243.41,229.33 243.10,229.67 243.87,231.76 C242.97,230.03 243.11,229.51 244.64,228.60 C244.66,228.59 244.69,228.57 244.71,228.56 ZM 402.79 231.03 C402.32,231.09 402.00,231.22 402.00,231.36 C402.00,231.55 398.66,241.42 394.59,253.28 C398.66,241.42 402.00,231.52 402.00,231.28 C402.00,230.90 402.24,230.80 402.79,231.03 ZM 418.07 275.99 C413.94,276.01 409.82,276.01 406.01,275.99 C406.54,275.98 407.08,275.98 407.61,275.97 C410.96,275.99 414.51,275.99 418.07,275.99 ZM 322.58 251.10 C324.32,250.63 325.69,250.27 326.80,250.03 C325.64,250.33 324.28,250.68 323.00,251.00 C322.86,251.03 322.72,251.07 322.58,251.10 ZM 360.03 363.19 L 360.20 362.58 L 364.51 346.92 C364.82,345.83 365.11,344.75 365.40,343.69 C365.12,344.75 364.83,345.82 364.52,346.92 ZM 305.28 246.98 C305.27,246.99 305.26,247.00 305.24,247.00 C305.08,246.99 303.64,245.76 301.35,243.67 C303.49,245.61 304.94,246.85 305.28,246.98 ZM 118.65 528.20 C118.56,528.54 118.50,528.85 118.44,529.13 C118.21,530.20 118.17,530.75 118.34,530.70 C118.34,530.70 118.33,530.70 118.33,530.70 C118.10,530.79 118.22,529.90 118.65,528.20 ZM 291.72 220.48 L 291.47 220.00 L 291.85 220.72 C291.81,220.64 291.76,220.56 291.72,220.48 Z" fill="rgb(234,39,67)"/>
<path d="M 130.73 285.28 C130.51,285.34 131.71,286.59 133.80,288.52 C118.96,275.53 103.67,261.65 86.03,245.20 L 77.57 237.31 L 104.53 236.63 C119.37,236.25 135.77,235.72 141.00,235.46 C146.23,235.19 165.80,234.51 184.50,233.94 L 218.50 232.91 L 235.75 228.57 C245.24,226.18 254.11,223.50 255.47,222.61 C256.82,221.73 259.56,221.00 261.54,221.00 C265.02,221.00 265.36,221.04 336.05,289.57 C321.22,275.34 307.02,262.00 306.41,262.00 C304.90,262.00 303.90,264.47 304.95,265.63 C305.38,266.11 305.46,268.98 305.11,272.00 C304.43,277.89 304.42,287.54 305.09,290.00 C305.68,292.15 297.66,291.48 287.50,288.52 C274.51,284.75 232.65,271.08 230.77,270.01 C230.40,269.79 229.80,269.66 228.95,269.62 C228.73,269.19 227.83,269.08 226.70,269.36 C226.22,269.48 225.08,269.70 223.54,269.97 C222.42,270.11 221.16,270.29 219.77,270.52 C216.61,271.03 212.90,271.64 208.82,272.30 L 208.82 272.30 C189.20,275.42 132.77,284.78 130.77,285.27 C130.75,285.27 130.74,285.27 130.73,285.28 ZM 278.17 195.27 C271.11,182.30 269.92,181.00 267.88,181.00 C266.42,181.00 261.46,180.29 256.86,179.41 C244.66,177.10 234.81,176.17 232.29,177.10 C230.99,177.58 229.24,179.88 228.01,182.71 C224.37,191.10 224.86,190.65 215.25,194.57 C210.39,196.55 209.97,197.95 213.44,200.55 C214.78,201.56 215.66,202.75 215.38,203.19 C215.19,203.49 215.20,203.76 215.36,203.90 C195.71,200.27 174.57,196.30 161.12,193.69 L 144.73 190.50 L 143.00 186.00 C139.54,177.04 139.53,176.88 142.49,178.41 C144.85,179.64 145.60,179.50 150.20,176.98 C155.58,174.04 161.37,167.65 162.41,163.51 C163.67,158.48 167.37,158.94 220.00,170.53 C228.52,172.41 237.99,173.96 241.04,173.97 C245.87,174.00 246.59,173.75 246.73,172.00 C246.81,170.89 246.23,168.76 245.45,167.25 C244.67,165.74 244.39,164.38 244.83,164.23 C245.27,164.08 250.37,166.18 256.16,168.89 L 266.70 173.82 ZM 252.00 275.19 L 255.50 275.50 L 256.27 266.64 C256.76,261.04 256.65,255.88 255.96,252.64 C255.37,249.81 254.64,246.30 254.34,244.84 L 253.80 242.19 L 250.36 244.22 C246.71,246.37 230.63,267.59 231.53,269.06 C232.23,270.19 247.61,274.79 252.00,275.19 ZM 251.38 236.80 C251.12,236.39 252.75,233.73 254.99,230.89 L 255.03 230.85 L 255.04 230.84 C257.23,228.06 258.90,225.66 258.79,225.46 L 258.79 225.46 C258.79,225.46 258.79,225.46 258.79,225.46 L 258.78 225.46 L 258.78 225.46 C258.23,224.92 246.51,227.51 244.71,228.56 C244.69,228.57 244.66,228.59 244.64,228.60 C243.11,229.51 242.97,230.03 243.87,231.76 C244.00,232.10 244.16,232.50 244.34,232.95 C244.72,234.37 244.77,236.38 244.44,238.54 C243.99,241.55 244.13,243.00 244.89,243.00 C245.50,243.00 246.00,242.50 246.00,241.89 C246.00,241.37 246.49,241.12 247.15,241.26 C247.18,241.27 247.21,241.28 247.24,241.29 C247.30,241.32 247.37,241.33 247.43,241.34 C247.45,241.34 247.47,241.35 247.48,241.36 C248.38,241.70 249.82,240.46 250.64,239.06 C251.29,238.19 251.68,237.29 251.38,236.80 ZM 184.17 332.01 C185.12,334.15 185.37,337.13 185.43,342.48 C185.49,348.17 185.20,349.52 183.87,349.78 C182.98,349.96 181.56,349.42 180.73,348.59 C180.16,348.01 179.79,347.69 179.52,347.64 C182.20,339.74 183.94,333.92 184.17,332.01 ZM 178.59 350.37 C178.65,350.75 178.81,351.00 179.07,351.00 C179.55,351.00 179.51,352.16 178.97,353.58 C178.43,355.01 178.28,356.65 178.65,357.24 C179.04,357.87 178.84,358.02 178.15,357.60 C177.52,357.20 177.00,357.39 177.00,358.00 C177.00,358.61 176.66,358.91 176.25,358.65 C175.84,358.40 175.58,360.17 175.69,362.60 C175.80,365.11 175.43,367.00 174.83,367.00 C174.26,367.00 174.06,367.79 174.40,368.75 C174.96,370.37 174.91,370.38 173.69,368.82 C173.02,367.96 171.75,370.31 167.37,382.62 C171.15,371.52 173.62,364.27 173.90,363.50 C175.62,358.82 177.20,354.37 178.59,350.37 ZM 263.62 212.56 L 269.47 213.29 L 286.99 230.14 C287.41,230.54 287.82,230.94 288.24,231.34 L 288.25 231.36 C288.71,231.80 289.17,232.24 289.63,232.68 C288.77,231.85 287.89,231.01 287.00,230.16 C269.56,213.38 269.48,213.32 264.00,212.61 C263.90,212.60 263.77,212.58 263.62,212.56 ZM 243.80 234.87 C243.48,232.86 243.34,233.00 242.88,235.78 C242.55,237.77 242.70,238.70 243.25,238.15 C243.76,237.64 244.00,236.17 243.80,234.87 ZM 368.02 334.10 C368.19,333.44 368.36,332.81 368.53,332.21 L 368.53 332.21 C368.69,331.61 368.84,331.08 368.97,330.64 L 370.92 323.74 L 365.88 318.50 L 371.04 323.50 L 369.03 330.52 C368.77,331.40 368.43,332.63 368.02,334.10 ZM 144.63 297.91 C148.12,300.85 151.64,303.81 155.04,306.67 C158.25,309.40 161.50,312.15 164.63,314.78 C157.84,309.15 151.23,303.58 144.63,297.91 ZM 180.05 327.55 C180.90,328.25 181.66,328.85 182.30,329.35 C182.65,329.69 182.95,330.03 183.23,330.40 C182.50,329.71 181.39,328.72 180.05,327.55 ZM 217.05 204.21 C219.55,204.64 225.22,205.68 232.05,206.96 C227.29,206.09 222.23,205.16 217.05,204.21 ZM 132.74 484.82 C134.60,479.32 136.54,473.59 138.52,467.73 C136.47,473.80 134.52,479.57 132.75,484.81 ZM 303.74 242.75 C305.09,245.09 305.81,247.00 305.35,247.00 C305.33,246.99 305.33,246.99 305.33,246.99 C305.79,247.00 305.13,245.23 303.87,243.01 C303.81,242.88 303.74,242.76 303.68,242.63 C303.70,242.67 303.72,242.71 303.74,242.75 ZM 360.19 312.97 C360.14,312.93 360.09,312.90 360.04,312.86 C359.53,312.35 359.00,311.83 358.46,311.30 ZM 302.12 239.81 C301.94,239.49 301.76,239.15 301.56,238.79 L 301.56 238.79 L 301.51 238.70 C301.73,239.09 301.93,239.46 302.12,239.81 ZM 118.40 530.67 C118.39,530.68 118.37,530.69 118.36,530.69 C118.37,530.69 118.38,530.68 118.40,530.67 Z" fill="rgb(247,58,40)"/>
<path d="M 293.78 248.70 C264.97,221.02 264.11,221.00 261.54,221.00 C259.56,221.00 256.82,221.73 255.47,222.61 C254.11,223.50 245.24,226.18 235.75,228.57 L 218.50 232.91 L 184.50 233.94 C165.80,234.51 146.23,235.19 141.00,235.46 C135.77,235.72 119.37,236.25 104.53,236.63 L 92.24 236.94 L 94.72 236.84 C119.28,235.88 140.56,234.35 148.25,232.99 C154.67,231.85 154.98,231.67 154.55,229.29 C154.30,227.92 153.31,225.60 152.36,224.15 C151.02,222.11 150.61,219.26 150.57,211.83 C150.53,206.51 150.84,201.83 151.24,201.43 C151.64,201.02 168.29,203.74 188.24,207.46 C208.18,211.18 233.76,215.86 245.08,217.86 L 265.66 221.50 ZM 256.60 169.03 L 266.70 173.82 L 256.16 168.89 C250.37,166.18 245.27,164.08 244.83,164.23 C244.39,164.38 244.67,165.74 245.45,167.25 C246.23,168.76 246.81,170.89 246.73,172.00 C246.59,173.75 245.87,174.00 241.04,173.97 C237.99,173.96 228.52,172.41 220.00,170.53 C167.37,158.94 163.67,158.48 162.41,163.51 C161.37,167.65 155.58,174.04 150.20,176.98 C145.60,179.50 144.85,179.64 142.49,178.41 C140.06,177.15 139.64,177.04 141.47,181.98 C140.86,180.53 140.31,179.31 140.00,178.77 C137.86,175.03 128.84,150.83 129.38,150.29 C129.70,149.97 139.37,151.80 150.87,154.35 C170.49,158.71 183.00,160.17 183.00,158.10 C183.00,157.60 185.07,154.45 187.59,151.09 C191.63,145.72 192.62,143.80 192.92,140.73 C193.08,139.18 198.96,141.58 222.47,152.78 C235.69,159.09 251.04,166.40 256.60,169.03 ZM 387.75 275.42 C388.29,275.96 396.89,276.11 405.22,276.00 C405.48,275.99 405.74,275.99 406.01,275.99 C409.82,276.01 413.94,276.01 418.07,275.99 C426.04,275.98 434.04,275.91 439.96,275.79 C434.18,276.00 426.23,276.16 417.56,276.24 L 386.69 276.50 L 381.63 291.10 C385.56,279.65 385.67,278.38 384.25,277.54 C383.29,276.97 372.60,271.41 360.50,265.19 C348.40,258.96 336.65,252.80 334.39,251.48 C333.02,250.68 332.14,250.12 331.17,249.85 C331.09,249.82 331.00,249.80 330.91,249.78 C330.70,249.29 330.09,249.13 329.25,249.37 C328.78,249.51 327.88,249.75 326.80,250.03 C325.69,250.27 324.32,250.63 322.58,251.10 L 322.44 251.14 C325.05,250.39 327.88,249.58 330.00,248.96 C347.14,243.95 393.29,232.49 402.13,230.95 C402.04,231.01 402.00,231.12 402.00,231.28 C402.00,231.52 398.66,241.42 394.59,253.28 C393.87,255.37 393.18,257.40 392.54,259.33 C392.42,259.66 392.30,260.01 392.18,260.36 C389.45,268.14 387.42,274.84 387.67,275.25 C387.68,275.27 387.70,275.29 387.73,275.31 C387.73,275.37 387.74,275.41 387.75,275.42 ZM 252.00 275.19 C247.61,274.79 232.23,270.19 231.53,269.06 C230.63,267.59 246.71,246.37 250.36,244.22 L 253.80 242.19 L 254.34 244.84 C254.64,246.30 255.37,249.81 255.96,252.64 C256.65,255.88 256.76,261.04 256.27,266.64 L 255.50 275.50 ZM 402.79 231.03 C402.63,230.96 402.50,230.92 402.39,230.91 C403.09,230.79 403.51,230.76 403.59,230.80 C405.23,231.73 415.77,241.63 426.32,251.84 C417.49,243.49 411.57,238.03 407.79,234.78 C405.92,232.63 404.04,231.00 403.38,231.00 C403.17,231.00 402.97,231.01 402.79,231.03 ZM 135.57 290.12 C120.47,277.01 105.97,263.90 91.80,250.56 C107.04,264.71 120.60,276.96 133.80,288.52 C134.33,289.01 134.93,289.55 135.57,290.12 ZM 144.63 297.91 C151.23,303.58 157.84,309.15 164.63,314.78 L 164.70 314.84 C157.06,308.51 149.61,302.22 142.29,295.93 C143.07,296.59 143.85,297.25 144.63,297.91 ZM 324.35 266.86 L 324.48 266.99 C318.31,260.97 313.88,256.57 313.17,255.71 C313.87,256.55 318.25,260.90 324.35,266.86 ZM 329.18 271.56 L 329.23 271.60 C333.64,275.88 338.55,280.63 343.47,285.36 C338.54,280.62 333.60,275.85 329.18,271.56 ZM 375.42 308.83 C374.34,311.83 373.63,313.70 373.54,313.79 C373.54,313.79 373.54,313.79 373.54,313.79 C373.65,313.64 374.35,311.77 375.42,308.83 ZM 360.19 312.97 L 358.46 311.30 L 358.31 311.15 L 360.20 312.98 ZM 365.87 318.48 L 371.04 323.50 L 365.88 318.50 Z" fill="rgb(253,99,36)"/>
<path d="M 139.00 198.03 C162.09,202.50 191.00,207.96 214.44,212.31 C205.68,210.70 196.48,209.00 188.24,207.46 C168.29,203.74 151.64,201.02 151.24,201.43 C150.84,201.83 150.53,206.51 150.57,211.83 C150.61,219.26 151.02,222.11 152.36,224.15 C153.31,225.60 154.30,227.92 154.55,229.29 C154.98,231.67 154.67,231.85 148.25,232.99 C140.56,234.35 119.28,235.88 94.72,236.84 L 92.24 236.94 L 92.24 236.94 L 78.00 237.30 C60.52,220.59 42.46,203.06 32.50,193.02 C14.69,175.06 14.54,174.88 18.50,175.51 C20.70,175.86 36.90,178.84 54.50,182.13 C72.10,185.41 91.45,189.01 97.50,190.11 C103.55,191.22 122.22,194.78 139.00,198.03 ZM 253.47 167.55 C246.48,164.22 233.70,158.14 222.47,152.78 C198.96,141.58 193.08,139.18 192.92,140.73 C192.62,143.80 191.63,145.72 187.59,151.09 C185.07,154.45 183.00,157.60 183.00,158.10 C183.00,160.17 170.49,158.71 150.87,154.35 C139.37,151.80 129.70,149.97 129.38,150.29 C129.05,150.62 132.36,159.97 135.44,167.96 C126.82,146.92 108.09,99.58 108.39,99.28 C108.68,98.99 195.37,139.77 253.47,167.55 ZM 115.00 272.09 C111.97,269.32 108.32,265.94 104.25,262.14 C113.66,270.80 123.25,279.38 133.09,287.96 C125.41,281.34 118.80,275.56 115.00,272.09 ZM 265.59 221.49 L 255.07 219.63 L 265.50 221.40 ZM 140.52 179.81 C140.79,180.41 141.12,181.15 141.47,181.98 C141.57,182.26 141.68,182.55 141.80,182.87 C141.37,181.81 140.93,180.75 140.52,179.81 Z" fill="rgb(253,145,39)"/>

</g>
</svg>